<svg preserveAspectRatio="none" overflow="visible" style="display: block;" width="92.6576" height="72.0389" viewBox="0 0 92.6576 72.0389" fill="none" xmlns="http://www.w3.org/2000/svg">
<g id="Group 25">
<path id="Vector" opacity="0.1" d="M71.4673 5.13156L39.4698 41.7291H5.13184V5.13156H71.4673Z" fill="#0A8AFF"/>
<path id="Vector (Stroke)" fill-rule="evenodd" clip-rule="evenodd" d="M2.44081e-05 0.571927C2.44081e-05 0.256086 0.256064 4.57764e-05 0.571905 4.57764e-05H92.0858C92.4016 4.57764e-05 92.6576 0.256086 92.6576 0.571927V46.3289C92.6576 46.6447 92.4016 46.9008 92.0858 46.9008H0.571905C0.256064 46.9008 2.44081e-05 46.6447 2.44081e-05 46.3289V0.571927ZM1.14379 1.14381V45.757H91.5139V1.14381H1.14379Z" fill="#0A8AFF"/>
<path id="Vector (Stroke)_2" fill-rule="evenodd" clip-rule="evenodd" d="M36.7274 45.9667C36.836 45.8341 36.9984 45.7571 37.1699 45.7571H55.4888C55.65 45.7571 55.8037 45.8251 55.9121 45.9444L78.7502 71.0825C78.9626 71.3163 78.9452 71.6779 78.7115 71.8903C78.4777 72.1027 78.116 72.0854 77.9036 71.8516L55.2357 46.9009H37.4408L17.0339 71.8293C16.8338 72.0737 16.4735 72.1096 16.2291 71.9096C15.9847 71.7095 15.9488 71.3492 16.1489 71.1048L36.7274 45.9667Z" fill="#0A8AFF"/>
<path id="Vector (Stroke)_3" fill-rule="evenodd" clip-rule="evenodd" d="M46.3284 45.7571C46.6442 45.7571 46.9003 46.0132 46.9003 46.329V66.9075C46.9003 67.2234 46.6442 67.4794 46.3284 67.4794C46.0125 67.4794 45.7565 67.2234 45.7565 66.9075V46.329C45.7565 46.0132 46.0125 45.7571 46.3284 45.7571Z" fill="#0A8AFF"/>
<path id="Vector (Stroke)_4" fill-rule="evenodd" clip-rule="evenodd" d="M4.55992 5.13153C4.55992 4.81569 4.81596 4.55965 5.13181 4.55965H87.4863C87.8021 4.55965 88.0582 4.81569 88.0582 5.13153V41.729C88.0582 42.0449 87.8021 42.3009 87.4863 42.3009H5.13181C4.81596 42.3009 4.55992 42.0449 4.55992 41.729V5.13153ZM5.70369 5.70341V41.1572H86.9144V5.70341H5.70369Z" fill="#0A8AFF"/>
<path id="Vector (Stroke)_5" opacity="0.4" fill-rule="evenodd" clip-rule="evenodd" d="M69.2072 21.7099H50.8883V15.991H69.2072V21.7099Z" fill="#0A8AFF"/>
<path id="Vector (Stroke)_6" opacity="0.4" fill-rule="evenodd" clip-rule="evenodd" d="M69.2072 30.8694H50.8883V25.1505H69.2072V30.8694Z" fill="#0A8AFF"/>
<path id="Vector (Stroke)_7" opacity="0.4" fill-rule="evenodd" clip-rule="evenodd" d="M31.44 19.4907C28.6211 19.4907 26.3101 21.8017 26.3101 24.6206C26.3101 27.4489 28.5901 29.7505 31.44 29.7505V35.4694C25.4129 35.4694 20.5912 30.5885 20.5912 24.6206C20.5912 18.6432 25.4626 13.7718 31.44 13.7718C37.4671 13.7718 42.2887 18.6526 42.2887 24.6206H36.5698C36.5698 21.7922 34.2898 19.4907 31.44 19.4907Z" fill="#0A8AFF"/>
<path id="Vector (Stroke)_8" opacity="0.4" fill-rule="evenodd" clip-rule="evenodd" d="M36.5698 24.5803C36.5698 21.752 34.2898 19.4504 31.44 19.4504V13.7315C37.4671 13.7315 42.2887 18.6124 42.2887 24.5803C42.2887 30.6075 37.4079 35.429 31.44 35.429C25.4129 35.429 20.5912 30.5483 20.5912 24.5803H26.3101C26.3101 27.4086 28.5901 29.7102 31.44 29.7102C34.2683 29.7102 36.5698 27.4302 36.5698 24.5803Z" fill="#0A8AFF"/>
</g>
</svg>
